<svg width="53" height="57" viewBox="0 0 53 57" fill="none" xmlns="http://www.w3.org/2000/svg">
<g clip-path="url(#clip0_347_239)">
<path d="M51.6072 19.0713C50.5625 16.4196 49.4375 15.5356 44.9375 15.5356C42.2053 15.5356 40.1161 17.6249 40.1161 20.3571C40.1161 21.8035 40.9197 23.1696 41.7233 24.616C41.9643 25.1785 42.3661 25.741 42.6072 26.3035L42.9286 26.9463C43.6518 28.3927 44.1339 29.4374 44.1339 31.6071C44.1339 32.491 43.9732 33.4553 43.5714 34.8213V34.9016L40.9197 42.857L34.0329 23.3446C34.2659 23.3146 34.499 23.2832 34.7322 23.2499C36.0179 23.2499 37.0625 22.1249 37.0625 20.8391C37.0625 19.4731 36.0178 18.4284 34.6517 18.4284C34.5714 18.4284 34.5714 18.4284 34.491 18.4284C31.3571 18.9106 28.2232 18.9106 25.0892 18.4284C25.0089 18.4284 25.0089 18.4284 24.9285 18.4284C23.5624 18.4284 22.5177 19.4731 22.5177 20.8391C22.5178 22.1249 23.5625 23.2499 24.8483 23.2499C25.1175 23.2902 25.3895 23.3274 25.6625 23.3629L28.9464 31.6874L24.9286 43.4999L17.6958 23.2636C17.7228 23.2589 17.7498 23.2547 17.7767 23.2499C19.0625 23.1696 20.1071 22.1249 20.1071 20.8391C20.1071 19.4731 19.0624 18.4284 17.6963 18.4284C17.616 18.4284 17.616 18.4284 17.5356 18.4284C14.9642 18.9106 12.3927 18.9106 9.82133 18.4284C9.741 18.4284 9.741 18.4284 9.66058 18.4284C8.29467 18.4285 7.25 19.4731 7.25 20.8391C7.25 22.1024 8.25863 23.1322 9.51336 23.2441L19.3839 50.2499C19.9464 51.7766 21.1517 52.9016 22.7589 53.3035C23.1607 53.3838 23.4822 53.4642 23.8839 53.4642C25.8928 53.4642 27.8214 52.0981 28.4642 50.1696L33.0446 36.5088L37.866 50.1696C38.2677 51.2946 39.0713 52.0981 39.9552 52.4196C40.7588 52.741 41.6427 52.6606 42.4463 52.2588C43.491 51.8571 44.2946 50.9731 44.616 49.9285L50.5625 32.0891C51.9286 28.6338 52.25 25.5802 52.25 23.6516V22.3659C52.25 21.241 52.0892 20.116 51.6072 19.0713ZM24.9286 21.6427C24.4464 21.6427 24.125 21.3213 24.125 20.8391C24.125 20.4374 24.4464 20.0356 24.8483 20.0356C28.1429 20.5981 31.3572 20.5981 34.7322 20.0356C35.1339 20.0356 35.4554 20.4373 35.4554 20.8391C35.4554 21.3213 35.134 21.6427 34.6518 21.6427C34.5715 21.6427 34.5715 21.6427 34.4911 21.6427C34.013 21.7163 33.5349 21.7772 33.0568 21.8283C32.9768 21.8118 32.8923 21.8035 32.8036 21.8035C30.6339 22.0446 28.4643 22.0446 26.2947 21.8035C26.2932 21.8035 26.2916 21.8037 26.2901 21.8037C25.8898 21.7578 25.4896 21.7043 25.0893 21.6427C25.0089 21.6427 25.0089 21.6427 24.9286 21.6427ZM8.85717 20.8391C8.85717 20.4374 9.17858 20.0356 9.58042 20.0356C12.3126 20.5981 15.0447 20.5981 17.7768 20.0356C18.1786 20.0356 18.5001 20.4373 18.5001 20.8391C18.5001 21.3213 18.1787 21.6427 17.6965 21.6427C17.6162 21.6427 17.6162 21.6427 17.5358 21.6427C17.2033 21.705 16.8708 21.759 16.5383 21.8052C16.5226 21.8045 16.507 21.8035 16.4911 21.8035C16.3569 21.8249 16.2222 21.8447 16.0873 21.8633C14.2117 22.083 12.3362 22.0448 10.4606 21.7514C10.4083 21.7419 10.3559 21.7332 10.3036 21.7231C10.2966 21.7231 10.2895 21.7238 10.2825 21.7238C10.1288 21.6984 9.97514 21.6716 9.82142 21.6428C9.74108 21.6428 9.74108 21.6428 9.66066 21.6428C9.17858 21.6427 8.85717 21.3213 8.85717 20.8391ZM50.5625 23.7321C50.5625 25.4999 50.3214 28.3928 49.0358 31.6071L43.009 49.4463C42.7679 50.0891 42.2858 50.5713 41.6429 50.8124C41.2412 50.9731 40.8393 51.0535 40.4376 50.8927C39.9554 50.732 39.4733 50.2499 39.2323 49.607L33.6073 33.857C33.5269 33.5356 33.2055 33.2945 32.884 33.2945C32.5626 33.2945 32.2412 33.5356 32.1608 33.857L26.9375 49.6071C26.4553 51.1338 24.7678 52.0981 23.1608 51.6963C22.1161 51.4552 21.3125 50.7321 20.9108 49.6874L11.3552 23.51C12.1297 23.5987 12.9041 23.6517 13.6786 23.6517C14.4832 23.6517 15.2879 23.5949 16.0924 23.4998L24.2857 46.2321C24.366 46.5535 24.6874 46.7946 25.0089 46.7946C25.3303 46.7946 25.6517 46.5535 25.7322 46.2321L30.5536 31.9285C30.6339 31.7677 30.6339 31.5267 30.5536 31.366L27.5262 23.5585C28.274 23.6172 29.0203 23.6517 29.75 23.6517C30.6183 23.6517 31.5104 23.6037 32.413 23.5224L40.2767 45.5892C40.3571 45.9106 40.6785 46.1517 41 46.1517C41.3215 46.1517 41.6428 45.9106 41.7233 45.5892L45.0983 35.5446C45.1786 35.4642 45.1786 35.4642 45.1786 35.3838C45.6608 33.8571 45.8214 32.6516 45.8214 31.6874C45.8214 29.116 45.1786 27.8302 44.4553 26.3035L44.1339 25.6606C43.8125 25.0981 43.4911 24.4553 43.1697 23.8928C42.4464 22.6874 41.8036 21.4821 41.8036 20.4374C41.8036 18.3481 43.4911 17.2231 45.0178 17.2231C49.1964 17.2231 49.5178 18.0267 50.0803 19.7142C50.4017 20.5178 50.5625 21.4017 50.5625 22.366V23.7321Z" fill="#60E1CB"/>
</g>
<circle opacity="0.2" cx="23.8169" cy="23.7363" r="22.9594" fill="#60E1CB"/>
<defs>
<clipPath id="clip0_347_239">
<rect width="45" height="45" fill="white" transform="translate(7.25 12)"/>
</clipPath>
</defs>
</svg>
