<svg width="57" height="55" viewBox="0 0 57 55" fill="none" xmlns="http://www.w3.org/2000/svg">
<path d="M51.8913 52.3754H17.1087C14.2919 52.3754 12 50.1344 12 47.3803V18.5459C12 15.7918 14.2919 13.5508 17.1087 13.5508H51.8913C54.708 13.5508 57 15.7918 57 18.5459V47.3803C57 50.1344 54.708 52.3754 51.8913 52.3754ZM17.1087 15.0387C15.1309 15.0387 13.5217 16.6121 13.5217 18.5459V47.3803C13.5217 49.3141 15.1309 50.8875 17.1087 50.8875H51.8913C53.8691 50.8875 55.4783 49.3141 55.4783 47.3803V18.5459C55.4783 16.6121 53.8691 15.0387 51.8913 15.0387H17.1087Z" fill="#60E1CB"/>
<path d="M50.1327 41.0172H38.1766C37.7563 41.0172 37.4158 40.6843 37.4158 40.2733C37.4158 39.8627 37.7563 39.5293 38.1766 39.5293H50.1327C50.5527 39.5293 50.8936 39.8627 50.8936 40.2733C50.8936 40.6843 50.5531 41.0172 50.1327 41.0172Z" fill="#60E1CB"/>
<path d="M50.1327 46.3959H38.1766C37.7563 46.3959 37.4158 46.0629 37.4158 45.6519C37.4158 45.2413 37.7563 44.908 38.1766 44.908H50.1327C50.5527 44.908 50.8936 45.2413 50.8936 45.6519C50.8936 46.0629 50.5531 46.3959 50.1327 46.3959Z" fill="#60E1CB"/>
<path d="M50.1327 30.2597H38.1766C37.7563 30.2597 37.4158 29.9267 37.4158 29.5157C37.4158 29.1051 37.7563 28.7717 38.1766 28.7717H50.1327C50.5527 28.7717 50.8936 29.1051 50.8936 29.5157C50.8936 29.9267 50.5531 30.2597 50.1327 30.2597Z" fill="#60E1CB"/>
<path d="M50.1327 35.6383H38.1766C37.7563 35.6383 37.4158 35.3054 37.4158 34.8944C37.4158 34.4838 37.7563 34.1504 38.1766 34.1504H50.1327C50.5527 34.1504 50.8936 34.4838 50.8936 34.8944C50.8936 35.3054 50.5531 35.6383 50.1327 35.6383Z" fill="#60E1CB"/>
<path d="M56.2391 23.5126H12.7609C12.3405 23.5126 12 23.1796 12 22.7686C12 22.3576 12.3405 22.0247 12.7609 22.0247H56.2391C56.6595 22.0247 57 22.3576 57 22.7686C57 23.1796 56.6595 23.5126 56.2391 23.5126Z" fill="#60E1CB"/>
<path d="M22.969 20.8608C21.6634 20.8608 20.6011 19.8225 20.6011 18.5459C20.6011 17.2693 21.6634 16.231 22.969 16.231C24.2746 16.231 25.3365 17.2693 25.3365 18.5459C25.3365 19.8225 24.2746 20.8608 22.969 20.8608ZM22.969 17.7189C22.5024 17.7189 22.1228 18.09 22.1228 18.5459C22.1228 19.0017 22.5024 19.3729 22.969 19.3729C23.4352 19.3729 23.8148 19.0017 23.8148 18.5459C23.8148 18.09 23.4352 17.7189 22.969 17.7189Z" fill="#60E1CB"/>
<path d="M17.4867 20.8608C16.1815 20.8608 15.1191 19.8225 15.1191 18.5459C15.1191 17.2693 16.1815 16.231 17.4867 16.231C18.7923 16.231 19.8546 17.2693 19.8546 18.5459C19.8546 19.8225 18.7923 20.8608 17.4867 20.8608ZM17.4867 17.7189C17.0205 17.7189 16.6409 18.09 16.6409 18.5459C16.6409 19.0017 17.0205 19.3729 17.4867 19.3729C17.9533 19.3729 18.3329 19.0017 18.3329 18.5459C18.3329 18.09 17.9533 17.7189 17.4867 17.7189Z" fill="#60E1CB"/>
<path d="M28.4508 20.8608C27.1452 20.8608 26.0833 19.8225 26.0833 18.5459C26.0833 17.2693 27.1452 16.231 28.4508 16.231C29.7564 16.231 30.8187 17.2693 30.8187 18.5459C30.8187 19.8225 29.7564 20.8608 28.4508 20.8608ZM28.4508 17.7189C27.9842 17.7189 27.605 18.09 27.605 18.5459C27.605 19.0017 27.9846 19.3729 28.4508 19.3729C28.9174 19.3729 29.297 19.0017 29.297 18.5459C29.297 18.09 28.9174 17.7189 28.4508 17.7189Z" fill="#60E1CB"/>
<path d="M32.4348 46.396H18.6305C18.2102 46.396 17.8696 46.063 17.8696 45.652V29.5157C17.8696 29.1051 18.2102 28.7717 18.6305 28.7717H32.4348C32.8552 28.7717 33.1957 29.1051 33.1957 29.5157V45.652C33.1957 46.063 32.8552 46.396 32.4348 46.396ZM19.3914 44.9081H31.674V30.2597H19.3914V44.9081Z" fill="#60E1CB"/>
<circle opacity="0.2" cx="22.9687" cy="23.4365" r="22.9594" fill="#60E1CB"/>
</svg>
